<?xml version="1.0" encoding="UTF-8" standalone="no"?>
<!-- Generator: Adobe Illustrator 13.0.0, SVG Export Plug-In . SVG Version: 6.00 Build 14948)  -->
<!DOCTYPE svg  PUBLIC '-//W3C//DTD SVG 1.1//EN'  'http://www.w3.org/Graphics/SVG/1.1/DTD/svg11.dtd'>
<svg id="Layer_1" xmlns="http://www.w3.org/2000/svg" xml:space="preserve" height="111.3px" viewBox="0 0 324.478 111.299" width="324.48px" version="1.1" y="0px" x="0px" xmlns:xlink="http://www.w3.org/1999/xlink" enable-background="new 0 0 324.478 111.299">
		<path d="m318.06 92.105c-4.002-2.524-26.592-13.393-33.932-16.633-4.47-1.971-14.405-5.307-23.59-7.826 0 0 19.351-34.014 21.352-37.732 0.853-1.583 1.945-3.338 2.286-5.432 0.461-2.824 0.288-5.146-0.714-7.005-1.032-1.922-6.146-10.438-6.146-10.438s-1.286-3.144-4.576-5.289c-3.285-2.144-6.719-1.715-6.719-1.715h-103.51s-4.574-0.429-8.15 2.286c-3.572 2.72-4.907 5.672-4.907 5.672l-28.975 50.516h-52.466c-2.003 0-4.527 0.429-5.385 1.143l-20.784-34.027-6.863 10.723 19.586 32.168-38.171-20.159-2.43 11.723 33.31 17.586h-21.444l2.003 11.437h14.488l-3.338 5.814c-0.833 1.428-2.952 5.242-1.143 8.863 1.812 3.623 3.698 4.373 8.577 4.481 2.07 0.044 10.259 0.075 22.56 0.096 1.526 1.798 3.8 2.941 6.342 2.941 2.538 0 4.805-1.137 6.33-2.928h0.256c0.527 0.132 1.074 0.207 1.641 0.207 0.556 0 1.095-0.074 1.614-0.198 0.88 0.531 1.899 0.855 3.004 0.855s2.126-0.324 3.006-0.855h0.202c0.672 0.339 1.422 0.548 2.224 0.548 0.801 0 1.549-0.209 2.217-0.546 77.674 0.036 218.67-0.12 218.67-0.12s7.734 1.192 9.671-5.149c1.42-4.667-2.1-8.481-6.1-11.005z" fill="#1B3664"/>
		<path d="m122.76 61.939h-55.279c-3.194 0-4.766 0.714-6.196 2.145l-20.298-33.168-4.431 1.858 21.729 35.312-2.714 4.72-37.6-19.73-3.717 3.288 38.885 20.443-2.287 4.147h-24.734l0.716 4.718h21.159l-6.005 11.009c-3.29 6.005 0.429 8.291 3.146 8.147h270.78c4.647 0 5.921-2.812 4.576-5.574-1.183-2.421-4.544-4.734-7.148-6.005-5.575-2.717-12.151-6.005-28.165-13.582-11.311-5.351-27.832-10.295-39.269-12.201-6.337-1.054-14.242-1.331-20.92-1.666-22.74-1.148-86.64-3.863-102.23-3.863z" fill="#0B8BC3"/>
		<path d="m135.54 64.226s93.278 3.613 104.08 4.576c19.256 1.716 42.509 11.819 42.509 11.819s-15.06 1.524-23.444 4.574c-8.389 3.051-10.097 11.438-17.919 12.198-31.262 3.051-52.747-4.582-87.686-5.336-12.466-0.271-77.741 3.141-88.732 3.43-2.287 9.151-12.01 9.246-14.488 8.197-2.48-1.047-8.198-11.438-3.24-14.296 4.954-2.861 4.133-8.458 4.133-8.458l2.393-4.124s4.861 2.86 11.295 4.147 40.356 2.461 52.039 1.191c17.538-1.905 1.337-17.729 1.337-17.729l17.72-0.185z" fill="#005689"/>
		<path d="m320.49 99.254c-1.183-2.421-4.544-4.734-7.148-6.005-5.575-2.717-12.151-6.005-28.165-13.582-8.396-3.971-19.657-7.718-29.585-10.165l23.295-41.016s1.859-2.861 2.286-5.006c0.43-2.143-0.714-4.289-0.714-4.289l-7.007-11.723s-1.142-1.857-3-3.002c-1.857-1.145-4.86-1-4.86-1h-102.96s-3.146-0.43-5.718 1.286c-2.576 1.716-4.004 4.289-4.004 4.289s-27.308 47.181-28.592 49.322c-1.287 2.146-1.574 3.575-1.574 3.575h-55.279c-3.194 0-4.766 0.714-6.196 2.145l-20.308-33.167-4.431 1.858 21.729 35.312-2.714 4.72-37.6-19.73-3.717 3.288 38.885 20.443-2.287 4.147h-24.734l0.716 4.718h21.159l-6.005 11.009c-3.29 6.005 0.429 8.291 3.146 8.147h270.78c4.65 0 5.92-2.81 4.58-5.576zm-124.89-43.748s-0.717 1.502-1.859 2.145c-1.144 0.643-2.288 0.714-2.288 0.714l4.791-8.362s0.786-1.216 1.786-1.788c1.002-0.57 2.215-0.858 2.215-0.858l-4.64 8.149zm11.3-19.444s-0.644 1.216-1.715 1.931c-1.073 0.714-2.289 0.857-2.289 0.857h-2.785s1.857-0.714 3.144-1.859c1.287-1.144 2.216-3.001 2.216-3.001l1.145-2.002s1.144-2.074 2.359-3.002c1.214-0.93 2.501-1.073 2.501-1.073l-4.56 8.149zm42.15-12.915c-0.381 1.24-1.477 2.765-1.477 2.765l-22.539 39.935-2.48-0.19 22.159-39.03s1.799-2.255 0.716-4.812c-1.049-2.477-2.86-2.477-4.146-2.477h-54.471c-1.431 0-2.464 0.213-4.576 1.429-2.477 1.428-3.43 3.144-3.43 3.144l-5.232 9.058s-0.962 1.713-0.39 3.336c0.57 1.617 1.618 2.571 1.618 2.571s-2.478 0.476-4.288 1.525c-1.811 1.048-3.239 3.432-3.239 3.432l-9.201 15.963s-1.285 2.051-0.858 3.003l-2.571-0.144c0.143-0.714 0.999-2.144 0.999-2.144l26.164-45.32s0.715-1.191 1.956-2.241c1.238-1.047 2.476-1.047 2.476-1.047h57.188l5.289 8.864c0-0.001 0.71 1.144 0.33 2.38z" fill="#0B99CD"/>
		<path d="m221.62 67.586l-10.935 19.158s0.643 0.071 2.215-0.787c1.151-0.629 1.714-1.645 1.714-1.645l9.295-16.585-2.28-0.141z" fill="#04679A"/>
		<polygon points="36.556 32.774 40.987 30.916 44.612 36.777 38.986 36.777" fill="#04679A"/>
		<polygon points="17.971 53.075 22.689 55.554 19.255 58.985 14.254 56.363" fill="#04679A"/>
		<polygon points="26.118 80.954 26.834 85.672 32.123 85.672 32.221 81.002" fill="#04679A"/>
		<path d="m278.17 19.948l-6.816-11.532c-0.092-0.161-0.19-0.29-0.295-0.399-1.009-1.481-2.718-2.201-5.145-2.201h-2.531c-0.014 0-0.023-0.004-0.038-0.004-0.017 0-0.033 0.004-0.048 0.004h-7.3c-0.053 0-0.101-0.004-0.152-0.004h-94.594c-1.056 0-2.109 0.405-3.329 1.137-1.219 0.731-2.112 1.706-2.761 2.76l-28.816 49.947-0.252 0.435c-0.814 1.382-1.22 2.845-1.22 4.387 0 0.893 0.165 1.542 0.484 2.031l10.721 18.269c0.092 0.161 0.192 0.291 0.295 0.399 1.012 1.483 2.722 2.201 5.146 2.201h19.488c1.787 0 2.678-0.57 2.678-1.624 0-0.326-0.078-0.649-0.241-0.893l-10.8-18.353c-0.325-0.489-0.487-1.139-0.487-2.031 0-1.408 0.355-2.747 1.033-4.021l26.983-46.849c0.649-1.056 1.462-2.03 2.678-2.761 1.22-0.73 2.438-1.138 3.493-1.138 0.059 0 37.975 0 56.959-0.001 0.925 0.012 1.553 0.26 1.896 0.755 0.118 0.172 0.378 0.571 0.626 0.958l5.06 8.528c0.327 0.488 0.489 1.138 0.489 2.028 0 1.412-0.357 2.748-1.035 4.023l-1.485 2.586-1.017 1.749-31.52 55.589c-0.569 0.776-1.262 1.484-2.2 2.047-1.217 0.73-2.435 1.138-3.49 1.138-1.462 0-2.192-0.65-2.192-1.948 0-0.57 0.162-1.217 0.568-1.95l33.846-59.587c0.405-0.731 0.566-1.381 0.566-1.947 0-0.164-0.012-0.316-0.033-0.457-0.16-0.995-0.882-1.494-2.157-1.494h-54.569c-1.054 0-2.193 0.407-3.413 1.138-1.218 0.73-2.109 1.705-2.761 2.761l-4.545 7.796c-0.406 0.73-0.57 1.38-0.57 1.949 0 1.298 0.732 1.947 2.275 1.947h19.486c1.056 0 2.116-0.405 3.332-1.136 1.218-0.729 2.111-1.705 2.761-2.761l2.273-3.898c0.649-1.056 1.541-2.029 2.761-2.762 1.219-0.73 2.355-1.136 3.411-1.136 1.461 0 2.192 0.649 2.192 1.95 0 0.567-0.164 1.217-0.57 1.947l-4.465 7.795c-0.651 1.057-1.545 2.033-2.761 2.762-1.218 0.73-2.357 1.137-3.412 1.137h-27.284c-1.054 0-2.191 0.405-3.409 1.139-1.218 0.73-2.113 1.704-2.759 2.759 0 0-9.182 15.914-9.251 16.068-0.233 0.539-0.333 1.031-0.333 1.472 0 1.3 0.729 1.949 2.274 1.949h27.285c1.542 0 2.353 0.65 2.353 1.867 0 0.488-0.162 0.978-0.485 1.543-0.651 1.137-0.975 2.357-0.975 3.738 0 0.891 0.244 1.621 0.566 2.19l10.721 18.352c0.325 0.487 0.731 0.73 1.219 0.73l33.146-0.014c1.058 0 2.112-0.409 3.331-1.14 1.216-0.729 2.109-1.703 2.762-2.76l28.399-50.173-0.024 0.003 1.059-1.837 3.636-6.28c0.022-0.039 0.038-0.081 0.062-0.12l2.247-3.902 0.253-0.438c0.811-1.378 1.219-2.84 1.219-4.385-0.05-0.889-0.21-1.538-0.54-2.027zm-88.43 36.857l4.546-7.795c0.652-1.057 1.462-2.028 2.682-2.762 1.216-0.728 2.355-1.137 3.413-1.137 1.541 0 2.27 0.651 2.27 1.949 0 0.569-0.161 1.218-0.566 1.949l-4.548 7.795c-0.651 1.059-1.462 2.03-2.68 2.761s-2.437 1.138-3.491 1.138c-1.462 0-2.192-0.65-2.192-1.949 0-0.568 0.16-1.219 0.57-1.949z" fill="#fff"/>
		<path d="m253.93 71.267l0.224 0.466-10.724 18.942s-1.286 2.072-3.431 3.361c-2.146 1.286-4.292 1.286-4.292 1.286h-33.024s-1.572-0.072-2.286-0.643c-0.717-0.575-1.357-1.716-1.357-1.716l-10.438-17.942s-1.072-1.932-0.857-3.934c0.214-2.001 1.214-4.287 1.214-4.287h-27.162s-1.358 0.071-2.501-0.574c-0.63-0.354-1.058-0.89-1.218-1.11-1.241-0.049-2.449-0.099-3.619-0.146 0.075 0.342 0.19 0.471 0.19 0.471l10.793 18.301s1.439 2.222-0.214 4.287c-1.429 1.789-3.646 1.645-3.646 1.645h-20.73s-1.857 0.07-4.004-0.999c-1.714-0.858-2.93-2.932-2.93-2.932l-10.579-18.086s-0.989-1.645-0.889-2.718c0.013-0.133-0.004-0.449 0.071-0.57l-4.708 0.048s16.201 15.823-1.337 17.729c-11.683 1.27-45.605 0.096-52.039-1.191-6.421-1.288-11.282-4.148-11.282-4.148l-2.393 4.124s0.82 5.597-4.133 8.458c-4.958 2.858 0.76 13.249 3.24 14.296 2.478 1.049 12.201 0.954 14.488-8.197 10.991-0.289 76.267-3.701 88.732-3.43 34.938 0.754 56.424 8.387 87.686 5.336 7.822-0.761 9.53-9.147 17.919-12.198 8.385-3.05 23.444-4.574 23.444-4.574s-13.35-5.795-28.19-9.35z" fill="#04679A"/>
		<circle cy="102.98" cx="75.323" r="5.169" fill="#36C6F4"/>
		<path d="m75.395 103.88c1.811 0 4.21 0.297 3.989 0.826-0.669 1.582-2.236 2.689-4.062 2.689-1.778 0-3.311-1.056-4.008-2.571-0.256-0.57 2.269-0.95 4.081-0.95z" fill="#0B99CD"/>
		<circle cy="101.69" cx="83.549" r="4.026" fill="#36C6F4"/>
		<path d="m94.003 101.74c0 1.266-1.027 2.288-2.287 2.288-1.266 0-2.288-1.022-2.288-2.288 0-1.264 1.022-2.287 2.288-2.287 1.26 0.005 2.287 1.027 2.287 2.287z" fill="#36C6F4"/>
		<path d="m105.89 103.11c0 1.264-1.022 2.287-2.288 2.287-1.26 0-2.288-1.023-2.288-2.287 0-1.263 1.028-2.286 2.288-2.286 1.27 0.01 2.29 1.03 2.29 2.29z" fill="#36C6F4"/>
		<circle cy="103.97" cx="93.6" r="2.287" fill="#36C6F4"/>
		<path d="m94.853 104.84c-0.275 0.4-0.733 0.659-1.253 0.659-0.519 0-0.979-0.259-1.253-0.659-0.169-0.243 0.41-0.58 1.253-0.58 0.84 0 1.423 0.33 1.253 0.58z" fill="#0B99CD"/>
		<path d="m104.64 104.45c-0.244 0.26-0.646 0.429-1.11 0.429-0.46 0-0.866-0.169-1.109-0.429-0.152-0.161 0.364-0.382 1.109-0.382 0.75-0.01 1.27 0.21 1.11 0.38z" fill="#0B99CD"/>
		<circle cy="102.83" cx="96.553" r="1.572" fill="#36C6F4"/>
		<path d="m108.32 102.54c0 0.867-0.704 1.571-1.572 1.571-0.871 0-1.574-0.704-1.574-1.571 0-0.871 0.704-1.575 1.574-1.575 0.87 0.01 1.57 0.71 1.57 1.58z" fill="#36C6F4"/>
		<circle cy="103.11" cx="109.04" r="1.573" fill="#36C6F4"/>
		<path d="m82.447 98.538c0 1.264-1.022 2.288-2.288 2.288-1.26 0-2.286-1.024-2.286-2.288 0-1.263 1.026-2.286 2.286-2.286 1.265-0.004 2.288 1.019 2.288 2.282z" fill="#36C6F4"/>
		<path d="m91.313 69.372c13.013-5.67 30.022 0 32.92 4.571-1.447-4.66-6.423-9.526-6.423-9.526h-39.08s-6.291-0.57-6.291 4.574c0.001 5.149 7.72 5.244 18.874 0.381z" fill="#36C6F4"/>
		<path d="m85.687 104.16c-0.57 0.498-1.32 0.797-2.138 0.797-0.781 0-1.497-0.271-2.06-0.732-0.187-0.151 0.206-0.63 2.007-0.63 1.803-0.01 2.342 0.43 2.191 0.56z" fill="#0B99CD"/>
		<path d="m81.448 66.515c0 0.71-0.577 1.287-1.289 1.287-0.708 0-1.285-0.577-1.285-1.287 0-0.713 0.577-1.287 1.285-1.287 0.712 0 1.289 0.574 1.289 1.287z" fill="#fff"/>
		<circle cy="66.515" cx="83.877" r="1.287" fill="#fff"/>
		<circle cy="66.515" cx="87.594" r="1.287" fill="#fff"/>
		<path d="m92.597 66.515c0 0.71-0.577 1.287-1.284 1.287-0.713 0-1.289-0.577-1.289-1.287 0-0.713 0.576-1.287 1.289-1.287 0.707 0 1.284 0.574 1.284 1.287z" fill="#fff"/>
		<circle cy="66.515" cx="95.029" r="1.287" fill="#fff"/>
		<circle cy="26.674" cx="35.554" r="9.815" fill="#1B3664"/>
		<path d="m29.171 26.674c0-3.526 2.859-6.383 6.384-6.383 3.527 0 6.384 2.856 6.384 6.383 0 3.528-2.857 6.385-6.384 6.385-3.525 0-6.384-2.857-6.384-6.385z" fill="#36C6F4"/>
		<circle cy="51.427" cx="9.816" r="9.816" fill="#1B3664"/>
		<circle cy="51.427" cx="9.817" r="6.384" fill="#36C6F4"/>
		<circle cy="83.386" cx="19.829" r="9.814" fill="#1B3664"/>
		<path d="m13.444 83.386c0-3.527 2.859-6.389 6.384-6.389 3.527 0 6.386 2.861 6.386 6.389 0 3.525-2.859 6.383-6.386 6.383-3.525 0-6.384-2.858-6.384-6.383z" fill="#36C6F4"/>
		<circle cy="93.81" cx="51.116" r="9.816" fill="#1B3664"/>
		<path d="m44.733 93.81c0-3.525 2.858-6.385 6.382-6.385 3.529 0 6.386 2.859 6.386 6.385s-2.856 6.386-6.386 6.386c-3.524 0-6.382-2.864-6.382-6.39z" fill="#36C6F4"/>
		<path d="m9.817 45.043c-0.188 0-0.377 0.013-0.56 0.029 1.963 0.485 3.423 2.245 3.423 4.358 0 2.487-2.014 4.503-4.504 4.503-2.419 0-4.376-1.911-4.483-4.304-0.168 0.568-0.26 1.173-0.26 1.797 0 3.527 2.858 6.386 6.384 6.386 3.527 0 6.384-2.858 6.384-6.386 0-3.525-2.856-6.383-6.384-6.383z" fill="#0B99CD"/>
		<path d="m35.555 20.291c-0.188 0-0.375 0.012-0.559 0.028 1.961 0.482 3.421 2.244 3.421 4.356 0 2.487-2.015 4.505-4.503 4.505-2.419 0-4.375-1.91-4.483-4.305-0.167 0.57-0.26 1.173-0.26 1.798 0 3.528 2.859 6.385 6.384 6.385 3.527 0 6.384-2.856 6.384-6.385 0-3.526-2.857-6.382-6.384-6.382z" fill="#0B99CD"/>
		<path d="m19.828 76.997c-0.188 0-0.375 0.016-0.558 0.03 1.961 0.485 3.42 2.246 3.42 4.359 0 2.485-2.013 4.502-4.501 4.502-2.42 0-4.377-1.909-4.485-4.304-0.167 0.57-0.261 1.174-0.261 1.801 0 3.525 2.859 6.383 6.384 6.383 3.527 0 6.386-2.857 6.386-6.383 0.001-3.527-2.858-6.388-6.385-6.388z" fill="#0B99CD"/>
		<path d="m51.115 87.425c-0.185 0-0.375 0.013-0.556 0.029 1.959 0.485 3.421 2.245 3.421 4.355 0 2.489-2.016 4.504-4.504 4.504-2.42 0-4.376-1.909-4.483-4.304-0.168 0.573-0.26 1.175-0.26 1.8 0 3.526 2.858 6.386 6.382 6.386 3.529 0 6.386-2.859 6.386-6.386-0.001-3.53-2.857-6.389-6.386-6.389z" fill="#0B99CD"/>
		<circle cy="23.052" cx="32.696" r="1.716" fill="#fff"/>
			<path d="m31.072 24.578c0 1.58 1.285 2.865 2.863 2.865 1.58 0 2.865-1.285 2.865-2.865 0-1.579-1.285-2.863-2.865-2.863-1.579 0-2.863 1.284-2.863 2.863zm0.5 0c0-1.303 1.06-2.363 2.363-2.363 1.304 0 2.365 1.061 2.365 2.363 0 1.304-1.061 2.365-2.365 2.365-1.303 0-2.363-1.061-2.363-2.365z" fill="#fff"/>
		<circle cy="90.437" cx="48.325" r="1.717" fill="#fff"/>
			<path d="m46.701 91.96c0 1.581 1.285 2.867 2.865 2.867s2.865-1.286 2.865-2.867c0-1.579-1.285-2.863-2.865-2.863s-2.865 1.284-2.865 2.863zm0.5 0c0-1.303 1.061-2.363 2.365-2.363s2.365 1.061 2.365 2.363c0 1.306-1.061 2.367-2.365 2.367s-2.365-1.061-2.365-2.367z" fill="#fff"/>
		<circle cy="79.858" cx="16.876" r="1.716" fill="#fff"/>
			<path d="m15.25 81.383c0 1.58 1.285 2.865 2.864 2.865 1.58 0 2.865-1.285 2.865-2.865s-1.285-2.865-2.865-2.865c-1.579 0-2.864 1.285-2.864 2.865zm0.5 0c0-1.304 1.061-2.365 2.364-2.365 1.304 0 2.365 1.062 2.365 2.365s-1.061 2.365-2.365 2.365c-1.303 0-2.364-1.061-2.364-2.365z" fill="#fff"/>
		<path d="m8.583 47.833c0 0.948-0.771 1.716-1.716 1.716-0.947 0-1.717-0.768-1.717-1.716 0-0.949 0.771-1.718 1.717-1.718 0.945 0 1.716 0.769 1.716 1.718z" fill="#fff"/>
			<path d="m5.241 49.356c0 1.58 1.285 2.865 2.865 2.865 1.579 0 2.863-1.285 2.863-2.865 0-1.578-1.285-2.862-2.863-2.862-1.58 0-2.865 1.284-2.865 2.862zm0.5 0c0-1.303 1.061-2.362 2.365-2.362 1.303 0 2.363 1.06 2.363 2.362 0 1.305-1.06 2.365-2.363 2.365-1.304 0.001-2.365-1.06-2.365-2.365z" fill="#fff"/>
		<path d="m74.92 100.25c0 0.737-0.6 1.338-1.337 1.338-0.735 0-1.333-0.601-1.333-1.338 0-0.734 0.598-1.332 1.333-1.332 0.737 0.003 1.337 0.601 1.337 1.332z" fill="#fff"/>
		<circle cy="103.4" cx="88.166" r="3.168" fill="#36C6F4"/>
		<path d="m83.33 99.683c0 0.643-0.523 1.166-1.164 1.166-0.648 0-1.17-0.523-1.17-1.166 0-0.646 0.522-1.168 1.17-1.168 0.641-0.001 1.164 0.521 1.164 1.167z" fill="#fff"/>
		<circle cy="102.16" cx="87.118" r="1.167" fill="#fff"/>
		<circle cy="100.63" cx="90.93" r=".73" fill="#fff"/>
		<circle cy="97.394" cx="79.493" r=".73" fill="#fff"/>
		<circle cy="102.83" cx="92.837" r=".729" fill="#fff"/>
		<circle cy="102.16" cx="102.94" r=".729" fill="#fff"/>
		<path d="m96.624 102.16c0 0.304-0.243 0.55-0.545 0.55s-0.547-0.246-0.547-0.55c0-0.299 0.245-0.547 0.547-0.547s0.545 0.25 0.545 0.55z" fill="#fff"/>
		<circle cy="101.87" cx="106.47" r=".547" fill="#fff"/>
		<circle cy="102.54" cx="108.85" r=".546" fill="#fff"/>
		<path d="m90.166 104.9c-0.458 0.606-1.181 0.995-1.999 0.995-0.904 0-1.697-0.479-2.132-1.196-0.234-0.381 0.847-1.019 2.227-1.019 1.381 0 2.217 0.81 1.904 1.22z" fill="#0B99CD"/>
</svg>
